<?xml version="1.0" encoding="utf-8"?>
<!-- Generator: Adobe Illustrator 19.1.0, SVG Export Plug-In . SVG Version: 6.00 Build 0)  -->
<!DOCTYPE svg PUBLIC "-//W3C//DTD SVG 1.1//EN" "http://www.w3.org/Graphics/SVG/1.1/DTD/svg11.dtd" [
	<!ENTITY ns_extend "http://ns.adobe.com/Extensibility/1.0/">
	<!ENTITY ns_ai "http://ns.adobe.com/AdobeIllustrator/10.0/">
	<!ENTITY ns_graphs "http://ns.adobe.com/Graphs/1.0/">
	<!ENTITY ns_vars "http://ns.adobe.com/Variables/1.0/">
	<!ENTITY ns_imrep "http://ns.adobe.com/ImageReplacement/1.0/">
	<!ENTITY ns_sfw "http://ns.adobe.com/SaveForWeb/1.0/">
	<!ENTITY ns_custom "http://ns.adobe.com/GenericCustomNamespace/1.0/">
	<!ENTITY ns_adobe_xpath "http://ns.adobe.com/XPath/1.0/">
]>
<svg version="1.1" xmlns:x="&ns_extend;" xmlns:i="&ns_ai;" xmlns:graph="&ns_graphs;"
	 xmlns="http://www.w3.org/2000/svg" xmlns:xlink="http://www.w3.org/1999/xlink" x="0px" y="0px" viewBox="0 0 145.2 42.1"
	 style="enable-background:new 0 0 145.2 42.1;" xml:space="preserve">
<style type="text/css">
	.st0{fill:#4667FF;}
	.st1{fill:#939291;}
	.st2{fill:#F15A29;}
	.st3{fill:#FFFFFF;stroke:#DDDDDC;stroke-miterlimit:10;}
	.st4{fill:none;stroke:#4667FF;stroke-width:1.6113;stroke-linecap:round;stroke-linejoin:round;stroke-miterlimit:10;}
	.st5{fill:#FFFFFF;}
	.st6{fill:none;stroke:#DDDDDC;stroke-miterlimit:10;}
	.st7{fill:#4F5252;}
	.st8{fill:none;stroke:#F15A29;stroke-width:3;stroke-miterlimit:10;}
	.st9{fill:none;stroke:#4667FF;stroke-width:3;stroke-miterlimit:10;}
	.st10{fill:none;stroke:#4667FF;stroke-width:15.8215;stroke-linecap:round;stroke-miterlimit:10;}
	.st11{fill:none;stroke:#F15A29;stroke-width:15.8215;stroke-linecap:round;stroke-miterlimit:10;}
	.st12{clip-path:url(#SVGID_4_);}
	.st13{clip-path:url(#SVGID_6_);}
	.st14{fill:none;stroke:#4667FF;stroke-width:1.6113;stroke-miterlimit:10;}
	.st15{fill:none;stroke:#D5D5D5;stroke-miterlimit:10;}
	.st16{fill:none;stroke:#008CCC;stroke-width:3;stroke-miterlimit:10;}
	.st17{fill:none;stroke:#F7941E;stroke-width:3;stroke-miterlimit:10;}
	.st18{fill:none;stroke:#ED1C24;stroke-width:3;stroke-miterlimit:10;}
	.st19{fill:#DDDDDC;}
	.st20{fill:none;stroke:#4667FF;stroke-miterlimit:10;}
	.st21{fill:none;stroke:#939291;stroke-miterlimit:10;}
	.st22{fill:#19191A;}
	.st23{fill:none;stroke:#231F20;stroke-width:2.6944;stroke-linecap:round;stroke-miterlimit:10;}
	.st24{fill:none;stroke:#4667FF;stroke-width:3.5692;stroke-linecap:round;stroke-miterlimit:10;}
	.st25{fill:none;stroke:#F15A29;stroke-width:3.5692;stroke-linecap:round;stroke-miterlimit:10;}
	.st26{fill:none;stroke:#4667FF;stroke-width:3.569;stroke-linecap:round;stroke-linejoin:round;stroke-miterlimit:10;}
	.st27{fill:#EFF0F1;}
	.st28{fill:none;stroke:#231F20;stroke-width:2.3682;stroke-linecap:round;stroke-miterlimit:10;}
</style>

			<g>
				<path class="st2" d="M124.3,0.4H90.9v0.1c-0.4,0-0.7-0.1-1.1-0.1C78.3,0.4,69,9.8,69,21.3c0,11.5,9.3,20.9,20.9,20.9
					c0.4,0,0.8,0,1.1-0.1v0h32.7c0.2,0,0.4,0,0.6,0c11.5,0,20.9-9.3,20.9-20.9C145.2,9.8,135.8,0.4,124.3,0.4z"/>
				<path class="st0" d="M89.8,0h-69C9.3,0,0,9.3,0,20.9c0,11.5,9.3,20.9,20.9,20.9h69c11.5,0,20.9-9.3,20.9-20.9
					C110.7,9.3,101.3,0,89.8,0z"/>
				<circle class="st27" cx="124.3" cy="21.3" r="13.6"/>
				<circle class="st27" cx="89.8" cy="20.9" r="13.6"/>
				<g>
					<line class="st28" x1="128.9" y1="16.6" x2="119.7" y2="25.9"/>
					<line class="st28" x1="128.9" y1="25.9" x2="119.7" y2="16.6"/>
				</g>
				<circle class="st27" cx="55.3" cy="20.9" r="13.6"/>
				<circle class="st28" cx="55.3" cy="20.8" r="6.2"/>
				<circle class="st27" cx="20.9" cy="20.9" r="13.6"/>
				<g>
					<path class="st28" d="M17,14.6h4.4c1.9,0,3.4,1.5,3.4,3.4c0,1.9-1.5,3.4-3.4,3.4h-2.8"/>
					<line class="st28" x1="17" y1="14.6" x2="17" y2="26.9"/>
					<line class="st28" x1="18.5" y1="21.3" x2="24.7" y2="26.9"/>
				</g>
				<g>
					<path class="st28" d="M86.9,14.6h3.9c1.7,0,3,1.3,3,3s-1.3,3-3,3h-2.5"/>
					<path class="st28" d="M86.9,26.9h4.9c1.7,0,3.1-1.4,3.1-3.1c0-1.7-1.4-3.1-3.1-3.1h-3.7"/>
					<line class="st28" x1="86.9" y1="14.6" x2="86.9" y2="26.9"/>
				</g>
			</g>
		
</svg>
