<svg version="1.1" xmlns="http://www.w3.org/2000/svg" xmlns:xlink="http://www.w3.org/1999/xlink" x="0px" y="0px"
	 viewBox="0 0 146 146" style="enable-background:new 0 0 146 146;" xml:space="preserve">
<style type="text/css">
	.st0{fill:none;stroke:#F15A29;stroke-width:15.8215;stroke-linecap:round;stroke-miterlimit:10;}
	.st1{fill:none;stroke:#4667FF;stroke-width:15.8215;stroke-linecap:round;stroke-miterlimit:10;}
	.st2{fill:#F15A29;}
	line,circle, path{
	mix-blend-mode: multiply;
	}
</style>

<g id="Layer_3">
	<g>
		<line class="st0" x1="118" y1="28" x2="97" y2="49"/>
		<line class="st0" x1="48.8" y1="97" x2="28" y2="118"/>
		<line class="st0" x1="118" y1="118" x2="97" y2="97"/>
		<line class="st0" x1="49" y1="49" x2="28" y2="28"/>
		<g>
			<path class="st0" d="M48.8,48.7c13.4-13.4,35-13.4,48.4,0"/>
			<g>
				<path class="st1" d="M97.2,97.1c13.4-13.4,13.4-35,0-48.4"/>
			</g>
			<g>
				<path class="st1" d="M97.2,97.1c-13.4,13.4-35,13.4-48.4,0"/>
			</g>
			<g>
				<path class="st1" d="M48.8,48.7c-13.4,13.4-13.4,35,0,48.4"/>
			</g>
			<circle class="st2" cx="73" cy="73" r="11"/>
		</g>
		<g>
			<line class="st1" x1="73" y1="9" x2="73" y2="38"/>
		</g>
		<g>
			<line class="st1" x1="73" y1="108" x2="73" y2="137"/>
		</g>
		<g>
			<line class="st1" x1="137" y1="73" x2="108" y2="73"/>
		</g>
		<g>
			<line class="st1" x1="38" y1="73" x2="9" y2="73"/>
		</g>
	</g>
</g>
</svg>
